<?xml version="1.0" encoding="UTF-8" standalone="no"?>
<svg
   version="1.0"
   width="1024.000000pt"
   height="1024.000000pt"
   viewBox="0 0 1024.000000 1024.000000"
   preserveAspectRatio="xMidYMid meet"
   id="svg1"
   sodipodi:docname="spectra-icon.svg"
   inkscape:version="1.4 (86a8ad7, 2024-10-11)"
   inkscape:export-filename="spectra-icon.svg"
   inkscape:export-xdpi="96"
   inkscape:export-ydpi="96"
   xmlns:inkscape="http://www.inkscape.org/namespaces/inkscape"
   xmlns:sodipodi="http://sodipodi.sourceforge.net/DTD/sodipodi-0.dtd"
   xmlns="http://www.w3.org/2000/svg"
   xmlns:svg="http://www.w3.org/2000/svg">
  <defs
     id="defs1" />
  <sodipodi:namedview
     id="namedview1"
     pagecolor="#505050"
     bordercolor="#eeeeee"
     borderopacity="1"
     inkscape:showpageshadow="0"
     inkscape:pageopacity="0"
     inkscape:pagecheckerboard="0"
     inkscape:deskcolor="#505050"
     inkscape:document-units="pt"
     inkscape:zoom="0.4050293"
     inkscape:cx="682.66666"
     inkscape:cy="682.66666"
     inkscape:window-width="1366"
     inkscape:window-height="705"
     inkscape:window-x="-8"
     inkscape:window-y="-8"
     inkscape:window-maximized="1"
     inkscape:current-layer="svg1" />
  <g
     transform="matrix(0.12464582,0,0,-0.13387385,-134.41327,1204.9268)"
     fill="#000000"
     stroke="none"
     id="g1"
     style="fill:#ffffff;fill-opacity:1"
     inkscape:export-filename="spectra-icon.png"
     inkscape:export-xdpi="96"
     inkscape:export-ydpi="96">
    <path
       d="m 6265,8193 c -250,-9 -687,-54 -900,-94 -803,-148 -1346,-406 -1814,-863 -202,-198 -258,-267 -812,-1001 -195,-258 -420,-555 -500,-660 -275,-361 -299,-393 -299,-404 0,-28 231,-433 358,-626 323,-495 725,-914 1165,-1213 58,-40 109,-77 112,-82 7,-12 -7,-27 -120,-122 -261,-219 -582,-427 -1015,-658 -252,-134 -302,-161 -298,-165 3,-3 195,-28 538,-70 1398,-169 2673,-72 3537,268 234,93 369,184 564,384 321,328 704,854 1329,1823 101,157 214,333 253,392 l 69,108 -88,147 c -101,172 -331,523 -412,632 -304,405 -662,743 -1098,1037 l -123,83 92,74 c 331,264 857,617 1261,848 32,19 58,38 58,44 -2,17 -317,59 -672,90 -346,29 -825,41 -1185,28 z M 5467,6721 c 414,-74 883,-284 1543,-694 433,-268 1073,-748 1057,-791 -18,-45 -562,-782 -756,-1023 -258,-322 -503,-586 -635,-688 -97,-74 -246,-148 -391,-194 -118,-38 -311,-79 -321,-68 -5,5 97,277 206,550 26,64 45,117 43,117 -2,0 -34,-15 -71,-34 -439,-221 -892,-321 -1330,-295 -690,41 -1260,298 -1892,853 -126,111 -459,441 -558,554 l -63,71 28,14 c 45,23 82,29 172,28 180,-2 331,-70 739,-334 606,-391 1038,-599 1438,-693 148,-35 422,-44 563,-20 386,67 693,325 823,691 86,242 74,548 -31,780 -87,192 -250,366 -442,474 -75,42 -207,89 -299,108 -89,17 -309,19 -401,3 -189,-33 -370,-120 -569,-275 -87,-67 -124,-85 -178,-85 -76,0 -114,70 -93,171 33,153 245,525 362,634 88,82 242,138 453,165 128,16 466,5 603,-19 z M 5201,5610 c 91,-17 214,-84 283,-155 81,-82 121,-153 147,-255 47,-185 -9,-364 -156,-498 -212,-194 -539,-196 -744,-6 -119,110 -170,228 -171,390 0,164 46,279 154,382 129,124 305,176 487,142 z"
       id="path1"
       style="fill:#ffffff;fill-opacity:1" />
  </g>
</svg>
