<svg version="1.0" xmlns="http://www.w3.org/2000/svg"
 width="50.000000pt" height="50.000000pt" viewBox="0 0 50.000000 50.000000"
 preserveAspectRatio="xMidYMid meet">

<g transform="translate(0.000000,50.000000) scale(0.100000,-0.100000)"
fill="#fff" stroke="none">
<path d="M127 464 c-11 -11 -8 -84 3 -84 6 0 10 5 10 10 0 6 43 10 110 10
l110 0 0 -145 0 -145 -110 0 c-67 0 -110 4 -110 10 0 6 -5 10 -11 10 -6 0 -9
-19 -7 -47 l3 -48 125 0 125 0 0 215 0 215 -121 3 c-66 1 -123 -1 -127 -4z
m163 -394 c0 -5 -18 -10 -40 -10 -22 0 -40 5 -40 10 0 6 18 10 40 10 22 0 40
-4 40 -10z"/>
<path d="M100 344 c0 -10 -6 -13 -19 -9 -22 7 -44 -16 -35 -39 4 -11 1 -16
-10 -16 -10 0 -16 -9 -16 -25 0 -16 6 -25 16 -25 11 0 14 -5 10 -16 -9 -23 13
-46 35 -39 13 4 19 1 19 -9 0 -10 9 -16 25 -16 16 0 25 6 25 16 0 10 6 13 19
9 22 -7 44 16 35 39 -4 11 -1 16 10 16 10 0 16 9 16 25 0 16 -6 25 -16 25 -10
0 -13 6 -9 19 7 22 -16 44 -39 35 -11 -4 -16 -1 -16 10 0 10 -9 16 -25 16 -16
0 -25 -6 -25 -16z m43 -35 c7 -1 18 -1 25 0 7 1 12 -4 11 -11 -3 -27 2 -38 19
-39 16 -1 16 -2 0 -6 -18 -4 -22 -15 -19 -41 1 -7 -4 -12 -11 -11 -27 3 -38
-2 -39 -18 -1 -17 -2 -17 -6 0 -4 17 -15 21 -41 18 -7 -1 -12 4 -11 11 3 27
-2 38 -18 39 -17 1 -17 2 0 6 17 4 21 15 18 41 -1 7 4 12 11 11 27 -3 38 2 39
19 1 16 2 16 6 0 2 -10 10 -19 16 -19z"/>
<path d="M100 276 c-27 -33 18 -72 48 -42 13 13 14 20 6 34 -15 23 -38 26 -54
8z m40 -21 c0 -8 -7 -15 -15 -15 -8 0 -15 7 -15 15 0 8 7 15 15 15 8 0 15 -7
15 -15z"/>
</g>
</svg>
