<svg version="1.0" xmlns="http://www.w3.org/2000/svg"
 width="24" height="24" viewBox="0 0 50.000000 50.000000"
 preserveAspectRatio="xMidYMid meet">

<g transform="translate(0.000000,50.000000) scale(0.100000,-0.100000)"
fill="#fff" stroke="none">
<path d="M150 396 c-41 -18 -75 -39 -75 -46 0 -15 147 -80 178 -79 37 1 172
63 172 79 0 17 -138 79 -175 79 -14 0 -59 -15 -100 -33z"/>
<path d="M84 266 c-12 -10 -16 -18 -9 -24 17 -17 156 -72 179 -71 30 1 169 62
173 76 3 7 -6 17 -19 23 -18 9 -37 6 -91 -15 l-68 -25 -63 25 c-73 29 -76 30
-102 11z"/>
<path d="M84 166 c-12 -10 -16 -18 -9 -24 17 -17 156 -72 179 -71 30 1 169 62
173 76 3 7 -6 17 -19 23 -18 9 -37 6 -91 -15 l-68 -25 -63 25 c-73 29 -76 30
-102 11z"/>
</g>
</svg>
