<svg version="1.0" xmlns="http://www.w3.org/2000/svg"
 width="50.000000pt" height="50.000000pt" viewBox="0 0 50.000000 50.000000"
 preserveAspectRatio="xMidYMid meet">

<g transform="translate(0.000000,50.000000) scale(0.100000,-0.100000)"
fill="#fff" stroke="none">
<path d="M115 384 c-55 -42 -100 -80 -100 -84 0 -4 45 -42 100 -84 l100 -77 3
52 3 52 45 -7 c55 -7 130 -39 161 -68 12 -12 30 -41 39 -65 22 -58 38 -56 30
4 -8 60 -45 140 -82 177 -34 34 -94 63 -151 72 l-42 6 -3 49 -3 50 -100 -77z"/>
</g>
</svg>
