<svg version="1.0" xmlns="http://www.w3.org/2000/svg"
 viewBox="0 0 50.000000 50.000000"
 preserveAspectRatio="xMidYMid meet">

<g transform="translate(0.000000,50.000000) scale(0.100000,-0.100000)"
fill="#fff" stroke="none">
<path d="M36 394 c-23 -23 -23 -265 0 -288 23 -24 405 -24 428 0 23 23 23 265
0 288 -23 24 -405 24 -428 0z m422 -31 l3 -23 -210 0 c-198 0 -211 1 -211 18
0 10 3 22 7 26 4 3 97 5 207 4 200 -3 201 -3 204 -25z m0 -160 l-3 -88 -205 0
-205 0 -3 88 -3 87 211 0 211 0 -3 -87z"/>
<path d="M90 250 c0 -6 33 -10 80 -10 47 0 80 4 80 10 0 6 -33 10 -80 10 -47
0 -80 -4 -80 -10z"/>
</g>
</svg>
