<svg version="1.0" xmlns="http://www.w3.org/2000/svg"
 width="50.000000pt" height="50.000000pt" viewBox="0 0 50.000000 50.000000"
 preserveAspectRatio="xMidYMid meet">

<g transform="translate(0.000000,50.000000) scale(0.100000,-0.100000)"
fill="#fff" stroke="none">
<path d="M60 260 l0 -240 137 0 c78 0 150 -5 168 -11 104 -38 181 90 100 165
-23 21 -25 31 -25 102 l0 79 -72 72 -72 73 -118 0 -118 0 0 -240z m295 150
l59 -60 -62 0 -62 0 0 60 c0 33 1 60 3 60 1 0 29 -27 62 -60z m100 -255 c50
-49 15 -135 -55 -135 -41 0 -80 39 -80 80 0 70 86 105 135 55z"/>
<path d="M390 130 c0 -13 -7 -20 -20 -20 -11 0 -20 -4 -20 -10 0 -5 9 -10 20
-10 13 0 20 -7 20 -20 0 -11 5 -20 10 -20 6 0 10 9 10 20 0 13 7 20 20 20 11
0 20 5 20 10 0 6 -9 10 -20 10 -13 0 -20 7 -20 20 0 11 -4 20 -10 20 -5 0 -10
-9 -10 -20z"/>
</g>
</svg>
