<?xml version="1.0" standalone="no"?>
<!DOCTYPE svg PUBLIC "-//W3C//DTD SVG 20010904//EN"
 "http://www.w3.org/TR/2001/REC-SVG-20010904/DTD/svg10.dtd">
<svg version="1.0" xmlns="http://www.w3.org/2000/svg"
 width="50.000000pt" height="50.000000pt" viewBox="0 0 50.000000 50.000000"
 preserveAspectRatio="xMidYMid meet">

<g transform="translate(0.000000,50.000000) scale(0.100000,-0.100000)"
fill="#fff" stroke="none">
<path d="M164 449 c-47 -13 -58 -34 -60 -108 -1 -47 4 -77 17 -103 31 -61 26
-74 -41 -108 -58 -29 -80 -53 -80 -84 0 -14 25 -16 200 -16 175 0 200 2 200
16 0 31 -22 55 -80 84 -67 34 -72 47 -42 108 18 37 27 129 16 164 -11 35 -83
61 -130 47z"/>
<path d="M311 441 c-10 -6 -10 -13 -2 -29 17 -32 11 -137 -10 -177 -10 -19
-19 -42 -19 -50 0 -8 25 -26 55 -40 30 -15 60 -35 65 -46 14 -25 100 -28 100
-3 0 31 -22 56 -66 76 -54 23 -62 40 -41 82 20 40 28 112 16 143 -5 13 -24 30
-44 38 -40 17 -36 17 -54 6z"/>
</g>
</svg>
