<svg version="1.0" xmlns="http://www.w3.org/2000/svg"
 width="24" height="24" viewBox="0 0 64.000000 64.000000"
 preserveAspectRatio="xMidYMid meet">

<g transform="translate(0.000000,64.000000) scale(0.100000,-0.100000)"
fill="#fff" stroke="none">
<path d="M241 536 c-36 -13 -111 -71 -111 -87 0 -17 79 -9 120 12 72 37 152
16 204 -55 29 -39 29 -133 0 -172 -52 -71 -132 -92 -204 -55 -41 21 -120 29
-120 12 0 -18 80 -78 119 -89 88 -27 166 -7 231 58 94 93 94 227 0 320 -65 66
-155 87 -239 56z"/>
<path d="M122 367 c-18 -18 -32 -40 -32 -48 0 -21 62 -79 84 -79 14 0 17 6 14
25 -5 24 -4 25 52 25 65 0 93 18 70 45 -8 10 -31 15 -70 15 -56 0 -57 1 -52
25 7 37 -27 33 -66 -8z"/>
</g>
</svg>
