<?xml version="1.0" encoding="UTF-8"?>
<!-- Generator: visioncortex VTracer 0.6.3 -->
<svg version="1.1" xmlns="http://www.w3.org/2000/svg" width="1280" height="1280">
<path d="M0 0 C1.25 -0 1.25 -0 2.53 -0.01 C5.29 -0.01 8.05 -0.01 10.81 -0 C12.73 -0 14.65 -0.01 16.56 -0.01 C20.58 -0.01 24.6 -0.01 28.62 -0 C33.77 0 38.93 0 44.08 -0 C48.04 -0.01 52 -0.01 55.96 -0 C57.86 -0 59.76 -0 61.66 -0.01 C64.32 -0.01 66.97 -0.01 69.62 0 C70.41 -0 71.2 -0 72.01 -0.01 C75.21 0.01 77.76 0.11 80.81 1.13 C82.79 1.31 84.77 1.45 86.75 1.57 C94.74 2.14 102.53 3.32 110.31 5.19 C113.74 5.99 117.05 6.34 120.56 6.57 C137.45 7.76 137.45 7.76 140.81 11.13 C143.9 11.79 146.99 12.37 150.09 12.94 C153.89 13.66 157.24 14.68 160.81 16.13 C162.89 16.58 164.97 16.99 167.06 17.38 C176.85 19.4 186.26 22.72 195.42 26.7 C198.65 28.06 201.82 29.1 205.19 30.07 C210.63 31.7 215.68 33.71 220.81 36.13 C221.99 36.62 223.16 37.12 224.38 37.63 C226.81 38.69 229.17 39.78 231.54 40.97 C232.24 41.33 232.94 41.68 233.66 42.04 C235.69 43.07 237.72 44.1 239.74 45.13 C246.33 48.48 252.86 51.75 259.8 54.34 C261.87 55.15 263.83 56.1 265.81 57.13 C265.81 57.79 265.81 58.45 265.81 59.13 C266.38 59.24 266.95 59.36 267.54 59.48 C270.04 60.2 271.9 61.22 274.12 62.57 C275.36 63.32 275.36 63.32 276.61 64.08 C277.48 64.61 278.35 65.14 279.25 65.69 C280.15 66.24 281.05 66.79 281.98 67.35 C283.78 68.45 285.58 69.54 287.37 70.64 C289.38 71.87 291.4 73.08 293.42 74.28 C299.82 78.12 306 82.24 312.12 86.5 C312.89 87.03 313.65 87.55 314.43 88.09 C315.13 88.59 315.83 89.08 316.55 89.59 C317.18 90.03 317.81 90.47 318.46 90.93 C318.91 91.32 319.35 91.72 319.81 92.13 C319.81 92.79 319.81 93.45 319.81 94.13 C320.39 94.41 320.97 94.68 321.57 94.97 C325.27 96.88 328.63 99.28 332.06 101.63 C332.81 102.13 333.55 102.63 334.32 103.14 C335.38 103.86 335.38 103.86 336.45 104.6 C337.1 105.04 337.74 105.47 338.41 105.92 C339.1 106.52 339.1 106.52 339.81 107.13 C339.81 107.79 339.81 108.45 339.81 109.13 C340.4 109.4 340.98 109.67 341.58 109.94 C343.84 111.14 345.62 112.47 347.56 114.13 C348.18 114.65 348.79 115.16 349.42 115.69 C350.81 117.13 350.81 117.13 350.81 119.13 C351.65 119.5 351.65 119.5 352.5 119.88 C355.24 121.36 357.49 123.06 359.81 125.13 C359.81 125.79 359.81 126.45 359.81 127.13 C360.4 127.4 360.98 127.67 361.58 127.94 C363.84 129.14 365.62 130.47 367.56 132.13 C368.18 132.65 368.79 133.16 369.42 133.69 C370.81 135.13 370.81 135.13 370.81 137.13 C371.47 137.13 372.13 137.13 372.81 137.13 C372.81 137.79 372.81 138.45 372.81 139.13 C373.8 139.46 374.79 139.79 375.81 140.13 C375.81 140.79 375.81 141.45 375.81 142.13 C376.47 142.13 377.13 142.13 377.81 142.13 C379.43 143.77 379.43 143.77 381.25 145.94 C383.79 148.95 383.79 148.95 386.54 151.77 C387.81 153.13 387.81 153.13 387.81 155.13 C388.47 155.13 389.13 155.13 389.81 155.13 C391.32 156.59 391.32 156.59 392.94 158.5 C393.48 159.13 394.02 159.76 394.57 160.4 C395.81 162.13 395.81 162.13 395.81 164.13 C396.47 164.13 397.13 164.13 397.81 164.13 C399.5 165.77 399.5 165.77 401.38 167.94 C402 168.65 402.62 169.36 403.25 170.09 C404.81 172.13 404.81 172.13 405.81 175.13 C406.47 175.13 407.13 175.13 407.81 175.13 C409.13 176.64 409.13 176.64 410.6 178.74 C411.13 179.5 411.66 180.25 412.21 181.03 C412.76 181.82 413.31 182.62 413.88 183.44 C414.71 184.62 414.71 184.62 415.56 185.82 C419.67 191.72 419.67 191.72 420.81 195.13 C421.47 195.13 422.13 195.13 422.81 195.13 C424.05 196.53 424.05 196.53 425.42 198.5 C426.18 199.57 426.18 199.57 426.95 200.66 C427.48 201.44 428.01 202.21 428.56 203 C429.11 203.79 429.66 204.58 430.22 205.39 C433.36 209.93 436.37 214.5 439.12 219.28 C441.08 222.58 443.14 225.8 445.2 229.04 C449.57 235.89 453.86 242.72 457.65 249.92 C458.69 251.89 459.79 253.79 460.94 255.69 C462.44 258.44 463.58 260.98 464.69 263.88 C466.54 268.7 468.91 273.1 471.43 277.6 C473.12 280.7 474.48 283.87 475.81 287.13 C476.47 288.63 477.14 290.13 477.81 291.63 C478.32 292.78 478.32 292.78 478.84 293.96 C479.65 295.77 480.48 297.58 481.31 299.38 C482.72 302.66 483.72 306.03 484.75 309.44 C486.19 314.25 487.84 318.86 489.75 323.49 C493.57 332.95 496.55 342.45 498.9 352.36 C499.7 355.66 500.57 358.92 501.5 362.19 C502.61 366.16 503.24 370.05 503.81 374.13 C504.47 375.8 505.14 377.47 505.81 379.13 C507.52 385.12 508.09 391.03 508.54 397.22 C508.84 400.47 509.47 403.51 510.25 406.67 C520.73 452.64 521.03 509.78 509.75 555.63 C508.95 559.06 508.6 562.37 508.38 565.88 C507.18 582.76 507.18 582.76 503.81 586.13 C503.15 589.21 502.57 592.3 502.01 595.41 C501.29 599.21 500.27 602.56 498.81 606.13 C498.36 608.21 497.95 610.29 497.56 612.38 C495.54 622.16 492.23 631.58 488.25 640.73 C486.88 643.96 485.84 647.14 484.88 650.5 C483.24 655.95 481.23 661 478.81 666.13 C478.32 667.31 477.82 668.48 477.31 669.69 C476.25 672.12 475.16 674.48 473.97 676.84 C473.62 677.54 473.27 678.24 472.9 678.96 C472.36 680.04 472.36 680.04 471.81 681.13 C470.8 683.15 469.78 685.16 468.76 687.18 C468.09 688.53 467.41 689.87 466.72 691.22 C465.13 694.39 463.6 697.56 462.22 700.83 C457.43 712.05 450.53 722.4 444.22 732.8 C443.03 734.77 441.85 736.74 440.68 738.71 C436.83 745.12 432.71 751.31 428.44 757.44 C427.91 758.2 427.39 758.96 426.85 759.75 C426.35 760.45 425.86 761.15 425.35 761.87 C424.91 762.5 424.47 763.13 424.01 763.78 C423.62 764.22 423.22 764.67 422.81 765.13 C422.15 765.13 421.49 765.13 420.81 765.13 C420.53 765.71 420.26 766.29 419.97 766.89 C418.06 770.59 415.66 773.95 413.31 777.38 C412.81 778.12 412.31 778.87 411.8 779.64 C411.08 780.69 411.08 780.69 410.34 781.77 C409.91 782.41 409.47 783.06 409.02 783.72 C408.62 784.19 408.22 784.65 407.81 785.13 C407.15 785.13 406.49 785.13 405.81 785.13 C405.54 785.71 405.28 786.29 405 786.9 C403.8 789.16 402.47 790.94 400.81 792.88 C400.3 793.49 399.78 794.11 399.25 794.74 C397.81 796.13 397.81 796.13 395.81 796.13 C395.57 796.69 395.32 797.24 395.06 797.82 C393.58 800.55 391.88 802.81 389.81 805.13 C389.15 805.13 388.49 805.13 387.81 805.13 C387.56 805.71 387.3 806.3 387.04 806.9 C385.71 809.32 384.25 810.86 382.25 812.75 C379.67 815.17 379.67 815.17 377.81 818.13 C377.15 818.13 376.49 818.13 375.81 818.13 C375.48 819.12 375.15 820.11 374.81 821.13 C374.15 821.13 373.49 821.13 372.81 821.13 C372.81 821.79 372.81 822.45 372.81 823.13 C372.15 823.13 371.49 823.13 370.81 823.13 C370.81 823.79 370.81 824.45 370.81 825.13 C369.17 826.82 369.17 826.82 367 828.69 C365.94 829.62 365.94 829.62 364.86 830.57 C362.81 832.13 362.81 832.13 359.81 833.13 C359.81 833.79 359.81 834.45 359.81 835.13 C358.35 836.64 358.35 836.64 356.44 838.25 C355.5 839.06 355.5 839.06 354.54 839.89 C352.81 841.13 352.81 841.13 350.81 841.13 C350.81 841.79 350.81 842.45 350.81 843.13 C349.17 844.82 349.17 844.82 347 846.69 C345.94 847.62 345.94 847.62 344.86 848.57 C342.81 850.13 342.81 850.13 339.81 851.13 C339.81 851.79 339.81 852.45 339.81 853.13 C338.3 854.44 338.3 854.44 336.2 855.91 C335.45 856.45 334.69 856.98 333.92 857.52 C333.12 858.07 332.32 858.62 331.5 859.19 C330.71 859.75 329.93 860.3 329.12 860.87 C323.23 864.99 323.23 864.99 319.81 866.13 C319.81 866.79 319.81 867.45 319.81 868.13 C318.41 869.36 318.41 869.36 316.45 870.74 C315.73 871.24 315.01 871.75 314.28 872.27 C313.51 872.8 312.73 873.33 311.94 873.88 C311.15 874.43 310.36 874.98 309.55 875.54 C305.02 878.67 300.46 881.68 295.68 884.43 C290.55 887.47 285.54 890.71 280.5 893.9 C278.94 894.89 277.39 895.87 275.83 896.85 C274.19 897.89 272.56 898.94 270.93 899.99 C268.81 901.13 268.81 901.13 265.81 901.13 C265.81 901.79 265.81 902.45 265.81 903.13 C260.91 905.67 256.04 908.1 250.88 910.07 C246.12 911.9 241.78 914.27 237.34 916.75 C234.25 918.44 231.08 919.8 227.81 921.13 C226.31 921.79 224.81 922.46 223.31 923.13 C222.16 923.64 222.16 923.64 220.98 924.16 C219.17 924.97 217.37 925.8 215.56 926.63 C212.27 928.05 208.88 929.04 205.44 930.07 C201.64 931.21 198.02 932.38 194.44 934.07 C184.28 938.79 173.41 941.62 162.55 944.22 C159.26 945.02 156.01 945.89 152.75 946.82 C148.79 947.92 144.89 948.56 140.81 949.13 C139.14 949.79 137.48 950.46 135.81 951.13 C129.83 952.84 123.91 953.41 117.72 953.85 C114.47 954.16 111.43 954.79 108.27 955.57 C62.3 966.04 5.16 966.35 -40.69 955.07 C-44.12 954.27 -47.43 953.92 -50.94 953.69 C-67.82 952.5 -67.82 952.5 -71.19 949.13 C-74.27 948.47 -77.36 947.89 -80.46 947.32 C-84.26 946.6 -87.62 945.58 -91.19 944.13 C-93.26 943.68 -95.35 943.27 -97.44 942.88 C-107.22 940.86 -116.63 937.54 -125.79 933.56 C-129.02 932.2 -132.2 931.16 -135.56 930.19 C-141.01 928.56 -146.05 926.55 -151.19 924.13 C-152.36 923.63 -153.54 923.14 -154.75 922.63 C-157.18 921.57 -159.53 920.48 -161.9 919.29 C-162.6 918.94 -163.3 918.58 -164.02 918.22 C-164.74 917.86 -165.45 917.5 -166.19 917.13 C-168.2 916.11 -170.22 915.1 -172.24 914.08 C-173.58 913.4 -174.93 912.72 -176.28 912.04 C-179.45 910.45 -182.62 908.92 -185.89 907.54 C-197.11 902.75 -207.46 895.84 -217.86 889.54 C-219.83 888.35 -221.8 887.17 -223.77 886 C-230.18 882.14 -236.37 878.02 -242.5 873.75 C-243.64 872.97 -243.64 872.97 -244.81 872.16 C-245.51 871.67 -246.2 871.18 -246.93 870.67 C-247.56 870.23 -248.18 869.79 -248.83 869.33 C-249.28 868.93 -249.73 868.54 -250.19 868.13 C-250.19 867.47 -250.19 866.81 -250.19 866.13 C-250.77 865.85 -251.35 865.57 -251.94 865.29 C-255.64 863.38 -259 860.98 -262.44 858.63 C-263.18 858.13 -263.93 857.63 -264.7 857.12 C-265.4 856.64 -266.1 856.16 -266.83 855.66 C-267.47 855.22 -268.12 854.79 -268.78 854.33 C-269.25 853.94 -269.71 853.54 -270.19 853.13 C-270.19 852.47 -270.19 851.81 -270.19 851.13 C-270.77 850.86 -271.35 850.59 -271.95 850.32 C-274.22 849.11 -275.99 847.79 -277.94 846.13 C-278.55 845.61 -279.16 845.1 -279.8 844.57 C-281.19 843.13 -281.19 843.13 -281.19 841.13 C-281.74 840.88 -282.3 840.63 -282.88 840.38 C-285.61 838.9 -287.86 837.19 -290.19 835.13 C-290.19 834.47 -290.19 833.81 -290.19 833.13 C-290.77 832.86 -291.35 832.59 -291.95 832.32 C-294.22 831.11 -295.99 829.79 -297.94 828.13 C-298.55 827.61 -299.16 827.1 -299.8 826.57 C-301.19 825.13 -301.19 825.13 -301.19 823.13 C-301.85 823.13 -302.51 823.13 -303.19 823.13 C-303.19 822.47 -303.19 821.81 -303.19 821.13 C-304.18 820.8 -305.17 820.47 -306.19 820.13 C-306.19 819.47 -306.19 818.81 -306.19 818.13 C-306.85 818.13 -307.51 818.13 -308.19 818.13 C-309.81 816.48 -309.81 816.48 -311.62 814.32 C-314.16 811.3 -314.16 811.3 -316.91 808.49 C-318.19 807.13 -318.19 807.13 -318.19 805.13 C-318.85 805.13 -319.51 805.13 -320.19 805.13 C-321.7 803.67 -321.7 803.67 -323.31 801.75 C-323.85 801.13 -324.39 800.5 -324.95 799.86 C-326.19 798.13 -326.19 798.13 -326.19 796.13 C-326.85 796.13 -327.51 796.13 -328.19 796.13 C-329.88 794.48 -329.88 794.48 -331.75 792.32 C-332.37 791.61 -332.99 790.9 -333.63 790.17 C-335.19 788.13 -335.19 788.13 -336.19 785.13 C-336.85 785.13 -337.51 785.13 -338.19 785.13 C-339.5 783.62 -339.5 783.62 -340.97 781.52 C-341.5 780.76 -342.03 780.01 -342.58 779.23 C-343.13 778.44 -343.68 777.64 -344.25 776.82 C-344.8 776.03 -345.36 775.25 -345.93 774.44 C-350.05 768.54 -350.05 768.54 -351.19 765.13 C-351.85 765.13 -352.51 765.13 -353.19 765.13 C-354.42 763.73 -354.42 763.73 -355.8 761.76 C-356.3 761.05 -356.8 760.33 -357.32 759.59 C-357.86 758.82 -358.39 758.05 -358.94 757.25 C-359.49 756.47 -360.03 755.68 -360.6 754.87 C-363.74 750.33 -366.74 745.76 -369.5 740.98 C-371.45 737.68 -373.51 734.46 -375.57 731.22 C-379.94 724.37 -384.24 717.54 -388.02 710.34 C-389.06 708.37 -390.17 706.47 -391.31 704.57 C-392.81 701.82 -393.95 699.28 -395.06 696.38 C-396.92 691.56 -399.29 687.16 -401.81 682.66 C-403.5 679.56 -404.86 676.39 -406.19 673.13 C-406.85 671.63 -407.52 670.13 -408.19 668.63 C-408.53 667.86 -408.87 667.09 -409.22 666.3 C-410.03 664.49 -410.86 662.68 -411.69 660.88 C-413.1 657.6 -414.1 654.23 -415.12 650.82 C-416.57 646.01 -418.22 641.4 -420.12 636.77 C-423.95 627.31 -426.92 617.81 -429.28 607.9 C-430.07 604.6 -430.95 601.34 -431.88 598.07 C-432.98 594.1 -433.62 590.21 -434.19 586.13 C-434.85 584.46 -435.51 582.79 -436.19 581.13 C-437.9 575.14 -438.46 569.23 -438.91 563.04 C-439.22 559.75 -439.88 556.66 -440.65 553.46 C-442.53 545.33 -443.45 537.17 -443.94 528.84 C-444.09 526.04 -444.09 526.04 -445.19 523.13 C-445.28 520.39 -445.32 517.68 -445.32 514.94 C-445.32 514.11 -445.32 513.27 -445.32 512.41 C-445.33 509.65 -445.32 506.89 -445.32 504.13 C-445.32 502.21 -445.32 500.3 -445.32 498.38 C-445.32 494.36 -445.32 490.34 -445.32 486.32 C-445.31 481.17 -445.32 476.01 -445.32 470.86 C-445.33 466.9 -445.32 462.94 -445.32 458.98 C-445.32 457.08 -445.32 455.18 -445.32 453.28 C-445.33 450.63 -445.32 447.97 -445.32 445.32 C-445.32 444.53 -445.32 443.74 -445.32 442.93 C-445.31 439.73 -445.21 437.19 -444.19 434.13 C-444.01 432.15 -443.87 430.17 -443.75 428.19 C-443.18 420.2 -442 412.42 -440.12 404.63 C-439.32 401.2 -438.98 397.89 -438.75 394.38 C-437.55 377.5 -437.55 377.5 -434.19 374.13 C-433.53 371.04 -432.95 367.95 -432.38 364.85 C-431.66 361.05 -430.64 357.7 -429.19 354.13 C-428.74 352.05 -428.32 349.97 -427.94 347.88 C-425.92 338.09 -422.6 328.68 -418.62 319.52 C-417.26 316.29 -416.22 313.12 -415.25 309.75 C-413.61 304.31 -411.61 299.26 -409.19 294.13 C-408.69 292.95 -408.2 291.78 -407.69 290.57 C-406.63 288.14 -405.54 285.78 -404.35 283.42 C-404 282.72 -403.64 282.02 -403.28 281.29 C-402.92 280.58 -402.56 279.87 -402.19 279.13 C-401.17 277.11 -400.15 275.1 -399.14 273.08 C-398.46 271.73 -397.78 270.39 -397.1 269.04 C-395.51 265.87 -393.97 262.7 -392.59 259.43 C-387.81 248.21 -380.9 237.86 -374.59 227.46 C-373.41 225.49 -372.23 223.52 -371.05 221.55 C-367.2 215.14 -363.08 208.95 -358.81 202.82 C-358.29 202.06 -357.76 201.3 -357.22 200.51 C-356.73 199.81 -356.24 199.11 -355.73 198.39 C-355.29 197.76 -354.84 197.13 -354.39 196.48 C-353.99 196.04 -353.6 195.59 -353.19 195.13 C-352.53 195.13 -351.87 195.13 -351.19 195.13 C-350.91 194.55 -350.63 193.97 -350.35 193.37 C-348.44 189.67 -346.04 186.31 -343.69 182.88 C-343.19 182.13 -342.69 181.39 -342.18 180.62 C-341.69 179.92 -341.21 179.21 -340.72 178.49 C-340.28 177.84 -339.84 177.2 -339.39 176.53 C-338.8 175.84 -338.8 175.84 -338.19 175.13 C-337.53 175.13 -336.87 175.13 -336.19 175.13 C-335.92 174.55 -335.65 173.96 -335.38 173.36 C-334.17 171.1 -332.85 169.32 -331.19 167.38 C-330.67 166.77 -330.16 166.15 -329.62 165.52 C-328.19 164.13 -328.19 164.13 -326.19 164.13 C-325.94 163.57 -325.69 163.02 -325.44 162.44 C-323.96 159.71 -322.25 157.45 -320.19 155.13 C-319.53 155.13 -318.87 155.13 -318.19 155.13 C-317.93 154.54 -317.67 153.96 -317.41 153.36 C-316.08 150.94 -314.62 149.4 -312.62 147.5 C-310.05 145.08 -310.05 145.08 -308.19 142.13 C-307.53 142.13 -306.87 142.13 -306.19 142.13 C-305.86 141.14 -305.53 140.15 -305.19 139.13 C-304.53 139.13 -303.87 139.13 -303.19 139.13 C-303.19 138.47 -303.19 137.81 -303.19 137.13 C-302.53 137.13 -301.87 137.13 -301.19 137.13 C-301.19 136.47 -301.19 135.81 -301.19 135.13 C-299.54 133.44 -299.54 133.44 -297.38 131.57 C-296.67 130.95 -295.96 130.33 -295.23 129.69 C-293.19 128.13 -293.19 128.13 -290.19 127.13 C-290.19 126.47 -290.19 125.81 -290.19 125.13 C-288.73 123.62 -288.73 123.62 -286.81 122 C-286.19 121.47 -285.56 120.93 -284.91 120.37 C-283.19 119.13 -283.19 119.13 -281.19 119.13 C-281.19 118.47 -281.19 117.81 -281.19 117.13 C-279.54 115.44 -279.54 115.44 -277.38 113.57 C-276.67 112.95 -275.96 112.33 -275.23 111.69 C-273.19 110.13 -273.19 110.13 -270.19 109.13 C-270.19 108.47 -270.19 107.81 -270.19 107.13 C-268.67 105.82 -268.67 105.82 -266.57 104.34 C-265.82 103.81 -265.07 103.28 -264.29 102.74 C-263.49 102.19 -262.7 101.63 -261.88 101.07 C-261.09 100.51 -260.3 99.96 -259.49 99.39 C-253.6 95.27 -253.6 95.27 -250.19 94.13 C-250.19 93.47 -250.19 92.81 -250.19 92.13 C-248.79 90.9 -248.79 90.9 -246.82 89.52 C-246.11 89.02 -245.39 88.51 -244.65 87.99 C-243.88 87.46 -243.11 86.93 -242.31 86.38 C-241.53 85.83 -240.74 85.28 -239.93 84.72 C-235.39 81.58 -230.82 78.57 -226.04 75.82 C-222.74 73.86 -219.51 71.81 -216.28 69.74 C-209.43 65.37 -202.6 61.08 -195.39 57.29 C-193.43 56.26 -191.53 55.15 -189.62 54 C-186.88 52.51 -184.34 51.37 -181.44 50.25 C-176.62 48.4 -172.22 46.03 -167.71 43.51 C-164.62 41.82 -161.45 40.46 -158.19 39.13 C-156.69 38.47 -155.19 37.8 -153.69 37.13 C-152.92 36.79 -152.15 36.45 -151.36 36.1 C-149.55 35.29 -147.74 34.46 -145.94 33.63 C-142.64 32.21 -139.25 31.22 -135.81 30.19 C-132.02 29.05 -128.4 27.88 -124.81 26.19 C-114.65 21.47 -103.78 18.64 -92.93 16.04 C-89.64 15.24 -86.38 14.36 -83.12 13.44 C-79.16 12.34 -75.27 11.7 -71.19 11.13 C-69.52 10.47 -67.85 9.8 -66.19 9.13 C-60.2 7.42 -54.29 6.85 -48.09 6.41 C-44.81 6.09 -41.72 5.44 -38.52 4.67 C-30.38 2.79 -22.22 1.87 -13.9 1.38 C-9.16 0.95 -4.86 -0.01 0 0 Z M17.92 121.88 C12.45 122.52 6.89 122.5 1.39 122.65 C-3.89 122.83 -8.73 123.34 -13.85 124.61 C-19.48 125.86 -25.29 126.32 -31.01 126.98 C-31.99 127.1 -32.97 127.22 -33.98 127.35 C-34.86 127.45 -35.74 127.55 -36.65 127.66 C-39.37 128.16 -41.65 129.06 -44.19 130.13 C-46.62 130.79 -49.05 131.41 -51.5 132 C-52.19 132.18 -52.89 132.35 -53.6 132.52 C-57.22 133.42 -60.85 134.29 -64.48 135.14 C-70.9 136.66 -77.03 138.22 -83 141.13 C-85.61 142.32 -88.26 143.19 -91 144.07 C-100.75 147.25 -109.89 151.4 -119.02 156.03 C-126 159.57 -133.08 162.86 -140.19 166.13 C-140.19 166.79 -140.19 167.45 -140.19 168.13 C-140.76 168.25 -141.34 168.37 -141.93 168.49 C-146.07 169.66 -149.59 172.11 -153.25 174.32 C-154.13 174.85 -155.01 175.37 -155.92 175.92 C-164.71 181.3 -172.93 187.35 -181.12 193.58 C-184.83 196.37 -188.64 199.02 -192.45 201.68 C-193.02 202.16 -193.6 202.64 -194.19 203.13 C-194.19 203.79 -194.19 204.45 -194.19 205.13 C-194.77 205.4 -195.35 205.67 -195.95 205.94 C-198.22 207.14 -199.99 208.47 -201.94 210.13 C-202.55 210.65 -203.16 211.16 -203.8 211.69 C-205.42 213.04 -205.42 213.04 -205.19 215.13 C-205.74 215.38 -206.3 215.62 -206.88 215.88 C-209.61 217.36 -211.86 219.06 -214.19 221.13 C-214.19 221.79 -214.19 222.45 -214.19 223.13 C-214.76 223.38 -215.34 223.62 -215.94 223.88 C-218.52 225.31 -220.25 226.91 -222.19 229.13 C-222.19 229.79 -222.19 230.45 -222.19 231.13 C-222.85 231.13 -223.51 231.13 -224.19 231.13 C-225.77 232.61 -225.77 232.61 -227.31 234.5 C-227.85 235.13 -228.39 235.76 -228.95 236.4 C-230.38 238.05 -230.38 238.05 -230.19 240.13 C-230.85 240.13 -231.51 240.13 -232.19 240.13 C-233.96 241.81 -233.96 241.81 -235.75 243.94 C-236.37 244.65 -236.99 245.36 -237.63 246.09 C-239.37 248.14 -239.37 248.14 -240.19 251.13 C-240.85 251.13 -241.51 251.13 -242.19 251.13 C-243.76 252.96 -243.76 252.96 -245.44 255.44 C-248.04 259.13 -250.67 262.79 -253.41 266.39 C-259.7 274.71 -265.63 283.12 -271 292.07 C-271.51 292.91 -272.02 293.76 -272.54 294.63 C-274.6 298.13 -276.36 301.13 -277.19 305.13 C-277.85 305.13 -278.51 305.13 -279.19 305.13 C-279.44 305.67 -279.69 306.21 -279.95 306.76 C-281.11 309.24 -282.27 311.72 -283.44 314.19 C-284.03 315.46 -284.03 315.46 -284.64 316.76 C-286.43 320.56 -288.24 324.31 -290.36 327.94 C-291.91 330.65 -293.14 333.22 -294.25 336.13 C-295.34 338.96 -296.46 341.73 -297.69 344.5 C-298.99 347.65 -300.07 350.77 -301.12 354 C-302.28 357.55 -303.49 360.91 -305.12 364.25 C-310.08 375.03 -312.34 387.3 -314.93 398.82 C-316.09 403.93 -316.09 403.93 -317.19 406.13 C-317.45 407.76 -317.67 409.4 -317.87 411.04 C-317.99 412.03 -318.12 413.02 -318.24 414.04 C-318.49 416.11 -318.74 418.19 -318.99 420.26 C-319.56 424.79 -320.15 429.22 -321.25 433.65 C-322.5 438.96 -322.6 444.26 -322.75 449.69 C-323.09 460.86 -323.09 460.86 -323.71 465.16 C-324.4 470.14 -324.33 475.11 -324.31 480.13 C-324.32 481.08 -324.32 482.02 -324.32 483 C-324.32 487.74 -324.11 492.28 -323.43 496.98 C-322.78 502.71 -322.82 508.53 -322.67 514.29 C-322.5 519.43 -322.12 524.09 -320.71 529.04 C-319.34 534.53 -318.98 540.29 -318.33 545.9 C-318.15 547.38 -318.15 547.38 -317.97 548.89 C-317.87 549.78 -317.76 550.66 -317.66 551.58 C-317.16 554.3 -316.26 556.59 -315.19 559.13 C-314.53 561.56 -313.9 563.99 -313.31 566.44 C-313.14 567.14 -312.97 567.83 -312.79 568.55 C-311.9 572.16 -311.03 575.79 -310.18 579.42 C-308.65 585.84 -307.09 591.97 -304.18 597.94 C-302.99 600.55 -302.13 603.21 -301.25 605.94 C-298.07 615.69 -293.92 624.83 -289.29 633.96 C-285.75 640.94 -282.46 648.02 -279.19 655.13 C-278.53 655.13 -277.87 655.13 -277.19 655.13 C-277.07 655.7 -276.95 656.28 -276.83 656.87 C-275.65 661.01 -273.21 664.53 -271 668.19 C-270.47 669.07 -269.94 669.95 -269.4 670.86 C-264.02 679.65 -257.97 687.87 -251.74 696.07 C-248.95 699.78 -246.3 703.58 -243.64 707.39 C-243.16 707.96 -242.68 708.54 -242.19 709.13 C-241.53 709.13 -240.87 709.13 -240.19 709.13 C-239.79 710 -239.79 710 -239.38 710.9 C-238.17 713.16 -236.85 714.94 -235.19 716.88 C-234.67 717.49 -234.16 718.11 -233.62 718.74 C-232.28 720.36 -232.28 720.36 -230.19 720.13 C-229.94 720.69 -229.69 721.24 -229.44 721.82 C-227.96 724.55 -226.25 726.81 -224.19 729.13 C-223.53 729.13 -222.87 729.13 -222.19 729.13 C-221.94 729.71 -221.69 730.28 -221.44 730.88 C-220 733.46 -218.4 735.19 -216.19 737.13 C-215.53 737.13 -214.87 737.13 -214.19 737.13 C-214.19 737.79 -214.19 738.45 -214.19 739.13 C-212.7 740.71 -212.7 740.71 -210.81 742.25 C-209.87 743.06 -209.87 743.06 -208.91 743.89 C-207.27 745.32 -207.27 745.32 -205.19 745.13 C-205.19 745.79 -205.19 746.45 -205.19 747.13 C-203.51 748.91 -203.51 748.91 -201.38 750.69 C-200.67 751.31 -199.96 751.93 -199.23 752.57 C-197.17 754.31 -197.17 754.31 -194.19 755.13 C-194.19 755.79 -194.19 756.45 -194.19 757.13 C-192.36 758.7 -192.36 758.7 -189.88 760.38 C-186.18 762.99 -182.53 765.61 -178.93 768.35 C-170.61 774.64 -162.2 780.57 -153.25 785.94 C-152.4 786.45 -151.56 786.96 -150.69 787.49 C-147.19 789.54 -144.19 791.3 -140.19 792.13 C-140.19 792.79 -140.19 793.45 -140.19 794.13 C-139.65 794.38 -139.11 794.63 -138.55 794.89 C-136.08 796.05 -133.6 797.22 -131.12 798.38 C-130.28 798.78 -129.43 799.17 -128.56 799.58 C-124.75 801.37 -121.01 803.18 -117.38 805.3 C-114.67 806.85 -112.1 808.08 -109.19 809.19 C-106.36 810.28 -103.59 811.4 -100.81 812.63 C-97.66 813.93 -94.55 815.02 -91.31 816.07 C-87.77 817.22 -84.41 818.43 -81.06 820.07 C-70.29 825.03 -58.01 827.28 -46.49 829.87 C-41.38 831.03 -41.38 831.03 -39.19 832.13 C-37.56 832.39 -35.92 832.62 -34.28 832.81 C-33.29 832.94 -32.3 833.06 -31.28 833.19 C-29.2 833.44 -27.13 833.69 -25.06 833.94 C-20.53 834.5 -16.1 835.09 -11.66 836.19 C-6.36 837.44 -1.06 837.55 4.38 837.69 C15.54 838.03 15.54 838.03 19.84 838.65 C24.82 839.34 29.79 839.27 34.81 839.25 C35.76 839.26 36.7 839.26 37.68 839.27 C42.42 839.26 46.97 839.05 51.67 838.37 C57.39 837.72 63.21 837.76 68.97 837.61 C74.11 837.44 78.77 837.06 83.72 835.65 C89.22 834.28 94.97 833.92 100.59 833.27 C101.57 833.15 102.56 833.03 103.57 832.91 C104.46 832.81 105.35 832.71 106.26 832.6 C108.98 832.1 111.27 831.21 113.81 830.13 C116.25 829.47 118.67 828.84 121.12 828.25 C121.82 828.08 122.51 827.91 123.23 827.73 C126.85 826.84 130.47 825.97 134.1 825.12 C140.52 823.6 146.66 822.03 152.62 819.13 C155.24 817.94 157.89 817.07 160.62 816.19 C170.37 813.01 179.52 808.86 188.64 804.23 C195.62 800.69 202.71 797.4 209.81 794.13 C209.81 793.47 209.81 792.81 209.81 792.13 C210.39 792.01 210.96 791.89 211.55 791.77 C215.72 790.59 219.26 788.1 222.94 785.88 C223.82 785.35 224.7 784.82 225.61 784.27 C240.67 775.06 254.87 764.4 268.05 752.66 C269.59 751.32 271.2 750.06 272.81 748.82 C273.47 748.26 274.13 747.7 274.81 747.13 C274.81 746.47 274.81 745.81 274.81 745.13 C275.37 744.88 275.93 744.63 276.5 744.38 C279.24 742.9 281.49 741.19 283.81 739.13 C283.81 738.47 283.81 737.81 283.81 737.13 C284.39 736.88 284.97 736.63 285.56 736.38 C288.14 734.95 289.87 733.35 291.81 731.13 C291.81 730.47 291.81 729.81 291.81 729.13 C292.47 729.13 293.13 729.13 293.81 729.13 C295.39 727.65 295.39 727.65 296.94 725.75 C297.48 725.13 298.02 724.5 298.57 723.86 C300.01 722.21 300.01 722.21 299.81 720.13 C300.47 720.13 301.13 720.13 301.81 720.13 C307.38 714.74 312.04 708.21 316.81 702.13 C317.6 701.14 318.38 700.15 319.19 699.13 C325.52 691.08 331.27 682.73 336.81 674.13 C337.28 673.41 337.74 672.69 338.22 671.95 C339.64 669.77 341.04 667.58 342.44 665.38 C342.88 664.7 343.31 664.02 343.77 663.32 C346.21 659.52 346.21 659.52 346.81 655.13 C347.47 655.13 348.13 655.13 348.81 655.13 C349.06 654.59 349.32 654.05 349.58 653.5 C350.73 651.02 351.9 648.54 353.06 646.07 C353.46 645.22 353.85 644.37 354.26 643.5 C356.05 639.69 357.87 635.94 359.98 632.31 C361.51 629.66 362.73 627.16 363.81 624.32 C364.14 623.46 364.47 622.61 364.81 621.73 C365.14 620.88 365.47 620.02 365.81 619.13 C366.48 617.46 367.14 615.79 367.81 614.13 C368.14 613.3 368.48 612.47 368.82 611.61 C369.46 610 370.11 608.4 370.78 606.81 C375.02 596.5 378.55 586.04 380.81 575.13 C381.14 574.8 381.47 574.47 381.81 574.13 C382.47 571.04 383.05 567.95 383.62 564.85 C384.15 562.03 384.71 559.38 385.81 556.72 C386.84 554.05 387.27 551.73 387.59 548.89 C387.77 547.41 387.77 547.41 387.96 545.9 C388.07 544.89 388.19 543.87 388.31 542.82 C389.63 531.49 389.63 531.49 390.87 527.15 C392.29 521.9 392.24 516.54 392.38 511.13 C392.72 499.36 392.72 499.36 393.33 495.07 C393.94 490.07 393.96 485.16 393.94 480.13 C393.94 479.18 393.95 478.24 393.95 477.26 C393.94 472.51 393.73 467.94 393.06 463.24 C392.42 457.77 392.44 452.21 392.29 446.71 C392.11 441.43 391.6 436.58 390.33 431.46 C389.08 425.83 388.62 420.03 387.96 414.31 C387.78 412.83 387.78 412.83 387.59 411.33 C387.49 410.45 387.39 409.57 387.28 408.67 C386.78 405.95 385.87 403.67 384.81 401.13 C383.99 397.34 383.3 393.54 382.59 389.72 C381.92 386.62 381.02 384.04 379.81 381.13 C379.33 379.22 378.87 377.3 378.44 375.38 C377.31 370.72 375.83 366.58 373.78 362.26 C372.82 360.16 372.08 358.07 371.38 355.88 C368.63 347.37 365.46 339.09 361.34 331.15 C358.76 326.06 356.37 320.89 353.93 315.73 C353.56 314.94 353.19 314.14 352.8 313.32 C352.3 312.26 352.3 312.26 351.79 311.17 C350.82 309.14 349.82 307.13 348.81 305.13 C348.15 305.13 347.49 305.13 346.81 305.13 C346.64 304.27 346.64 304.27 346.45 303.39 C345.27 299.23 342.79 295.69 340.56 292 C340.03 291.12 339.5 290.24 338.95 289.33 C329.74 274.27 319.09 260.07 307.35 246.89 C306.01 245.35 304.75 243.75 303.5 242.13 C302.66 241.14 302.66 241.14 301.81 240.13 C301.15 240.13 300.49 240.13 299.81 240.13 C299.57 239.57 299.32 239.02 299.06 238.44 C297.58 235.71 295.88 233.45 293.81 231.13 C293.15 231.13 292.49 231.13 291.81 231.13 C291.57 230.55 291.32 229.97 291.06 229.38 C289.63 226.8 288.03 225.07 285.81 223.13 C285.15 223.13 284.49 223.13 283.81 223.13 C283.81 222.47 283.81 221.81 283.81 221.13 C282.33 219.55 282.33 219.55 280.44 218 C279.81 217.47 279.18 216.93 278.54 216.37 C276.9 214.93 276.9 214.93 274.81 215.13 C274.81 214.47 274.81 213.81 274.81 213.13 C269.43 207.56 262.89 202.91 256.81 198.13 C255.33 196.95 255.33 196.95 253.81 195.75 C245.77 189.42 237.41 183.67 228.81 178.13 C228.09 177.66 227.38 177.2 226.64 176.72 C224.45 175.3 222.26 173.9 220.06 172.5 C219.38 172.07 218.7 171.63 218 171.18 C214.21 168.73 214.21 168.73 209.81 168.13 C209.81 167.47 209.81 166.81 209.81 166.13 C209 165.75 209 165.75 208.18 165.37 C205.7 164.21 203.23 163.04 200.75 161.88 C199.9 161.48 199.05 161.09 198.18 160.68 C194.38 158.89 190.64 157.08 187 154.96 C184.29 153.4 181.73 152.17 178.81 151.07 C175.98 149.98 173.21 148.86 170.44 147.63 C167.29 146.33 164.17 145.24 160.94 144.19 C157.39 143.04 154.03 141.83 150.69 140.19 C139.91 135.23 127.64 132.98 116.12 130.39 C111.01 129.23 111.01 129.23 108.81 128.13 C107.17 127.86 105.52 127.64 103.87 127.45 C102.87 127.32 101.88 127.2 100.85 127.07 C98.77 126.82 96.68 126.57 94.59 126.32 C85.98 125.25 85.98 125.25 81.82 124.07 C76.57 122.65 71.22 122.7 65.81 122.57 C54.05 122.22 54.05 122.22 49.75 121.61 C44.75 121 39.84 120.98 34.81 121 C33.87 121 32.92 121 31.95 120.99 C27.19 121 22.62 121.21 17.92 121.88 Z " fill="#FEFEFE" transform="translate(445.1875,-0.12939453125)"/>
<path d="M0 0 C4.05 1.99 6.96 4.71 10.13 7.88 C10.62 8.37 11.12 8.86 11.63 9.37 C13.28 11.02 14.93 12.67 16.58 14.33 C17.77 15.52 18.97 16.72 20.17 17.91 C23.46 21.2 26.74 24.49 30.02 27.78 C33.57 31.33 37.11 34.87 40.66 38.41 C47.61 45.35 54.55 52.3 61.49 59.25 C69.57 67.34 77.65 75.42 85.74 83.51 C100.16 97.93 114.59 112.36 129 126.8 C143 140.81 156.99 154.81 171 168.81 C171.86 169.67 172.72 170.53 173.61 171.42 C174.47 172.28 175.33 173.14 176.22 174.03 C192.15 189.96 208.08 205.9 224.01 221.84 C229.65 227.48 235.28 233.11 240.92 238.75 C247.79 245.62 254.65 252.49 261.52 259.37 C265.02 262.87 268.53 266.38 272.03 269.89 C275.24 273.09 278.45 276.31 281.65 279.52 C282.81 280.68 283.98 281.84 285.14 283 C286.72 284.58 288.29 286.16 289.87 287.74 C290.75 288.62 291.62 289.5 292.53 290.4 C300 298.26 300 298.26 300 301 C300.66 301 301.32 301 302 301 C303.62 302.83 303.62 302.83 305.44 305.25 C306.03 306.04 306.63 306.83 307.25 307.64 C307.82 308.42 308.4 309.2 309 310 C309.53 310.65 310.05 311.31 310.6 311.98 C312.17 314.24 312.99 316.44 314 319 C314.93 320.67 315.87 322.35 316.82 324.01 C320.77 330.98 323.32 337.56 325.11 345.37 C325.78 348.11 326.55 350.51 327.53 353.14 C329.15 357.98 329.47 362.39 329.47 367.47 C329.48 368.35 329.48 369.23 329.49 370.13 C329.5 371.99 329.51 373.84 329.5 375.69 C329.5 378.47 329.54 381.24 329.59 384.02 C329.66 395.86 327.99 405.86 324 417 C323.47 418.61 323.47 418.61 322.93 420.25 C321.03 426.01 318.43 431.17 315.43 436.44 C314.19 438.66 313.11 440.88 312.06 443.19 C310.15 447.13 307.46 450.14 304.49 453.34 C302.92 454.94 302.92 454.94 302 457 C301.34 457 300.68 457 300 457 C299.66 457.84 299.66 457.84 299.31 458.69 C297.63 461.65 295.46 463.65 293 466 C291.92 467.14 291.92 467.14 290.81 468.31 C289 470 289 470 287 470 C287 470.66 287 471.32 287 472 C285.28 473.59 285.28 473.59 282.94 475.38 C282.18 475.96 281.43 476.55 280.65 477.15 C277.55 479.32 274.31 481.17 271 483 C270.36 483.36 269.73 483.72 269.07 484.1 C259.52 489.5 250.68 493.36 240 496 C239.05 496.37 239.05 496.37 238.09 496.75 C229.73 499.85 221.09 499.52 212.29 499.5 C209.53 499.5 206.78 499.54 204.02 499.59 C180.3 499.74 151.69 491.38 134.35 474.31 C133.01 472.88 133.01 472.88 131 472 C131 471.34 131 470.68 131 470 C130.45 469.77 129.91 469.54 129.34 469.3 C126.31 467.62 124.06 465.49 121.51 463.13 C120.99 462.64 120.46 462.16 119.92 461.65 C114.08 456.2 108.43 450.57 102.78 444.92 C101.6 443.74 100.42 442.56 99.24 441.38 C96.03 438.17 92.82 434.97 89.61 431.76 C86.14 428.28 82.66 424.81 79.19 421.34 C72.4 414.56 65.61 407.78 58.82 400.99 C53.31 395.48 47.8 389.97 42.28 384.45 C26.64 368.82 11 353.18 -4.64 337.55 C-5.48 336.71 -6.32 335.86 -7.19 335 C-8.45 333.73 -8.45 333.73 -9.74 332.44 C-23.42 318.76 -37.11 305.08 -50.81 291.4 C-64.87 277.35 -78.93 263.3 -92.99 249.24 C-100.88 241.35 -108.77 233.46 -116.67 225.58 C-123.38 218.87 -130.09 212.17 -136.79 205.45 C-140.22 202.03 -143.64 198.6 -147.07 195.18 C-150.2 192.06 -153.33 188.93 -156.46 185.79 C-157.59 184.66 -158.73 183.52 -159.87 182.39 C-161.41 180.85 -162.94 179.31 -164.48 177.77 C-165.33 176.92 -166.19 176.06 -167.07 175.18 C-169 173 -169 173 -170 170 C-166.64 166.4 -162.92 163.6 -158.94 160.75 C-158.31 160.29 -157.69 159.83 -157.04 159.36 C-152.36 156 -152.36 156 -149 156 C-149 155.34 -149 154.68 -149 154 C-144.62 151 -144.62 151 -142 151 C-142 150.34 -142 149.68 -142 149 C-140.26 147.55 -138.46 146.19 -136.62 144.88 C-135.13 143.79 -135.13 143.79 -133.6 142.68 C-131 141 -131 141 -129 141 C-129 140.34 -129 139.68 -129 139 C-127.32 137.49 -127.32 137.49 -125.12 135.88 C-124.41 135.34 -123.69 134.8 -122.95 134.24 C-121 133 -121 133 -119 133 C-119 132.34 -119 131.68 -119 131 C-116.88 129.05 -116.88 129.05 -114.12 126.88 C-112.77 125.79 -112.77 125.79 -111.38 124.68 C-109 123 -109 123 -107 123 C-107 122.34 -107 121.68 -107 121 C-101.52 116 -101.52 116 -99 116 C-99 115.34 -99 114.68 -99 114 C-97.5 112.52 -97.5 112.52 -95.44 110.81 C-91.89 107.81 -88.63 104.66 -85.45 101.29 C-84 100 -84 100 -82 100 C-82 99.34 -82 98.68 -82 98 C-80.32 96.38 -80.32 96.38 -78.12 94.56 C-75.54 92.42 -73.89 90.83 -72 88 C-71.34 88 -70.68 88 -70 88 C-69.75 87.42 -69.5 86.84 -69.24 86.25 C-67.83 83.7 -66.23 82.07 -64.12 80.06 C-61.76 77.77 -59.68 75.59 -57.62 73 C-57.09 72.34 -56.55 71.68 -56 71 C-55.34 71 -54.68 71 -54 71 C-53.73 70.42 -53.46 69.85 -53.19 69.25 C-51.97 66.94 -50.7 64.98 -49 63 C-48.34 63 -47.68 63 -47 63 C-46.73 62.43 -46.46 61.86 -46.19 61.27 C-44.96 58.92 -43.57 56.88 -42 54.75 C-41.48 54.04 -40.97 53.34 -40.44 52.61 C-39.96 52.08 -39.49 51.55 -39 51 C-38.34 51 -37.68 51 -37 51 C-36.63 50.2 -36.63 50.2 -36.25 49.38 C-34.69 46.42 -32.97 43.7 -31 41 C-30.34 41 -29.68 41 -29 41 C-28.79 40.34 -28.59 39.68 -28.38 39 C-26.51 34.93 -24.02 31.31 -21 28 C-20.34 28 -19.68 28 -19 28 C-18.69 27.22 -18.38 26.43 -18.06 25.62 C-17 23 -17 23 -16 21 C-15.34 21 -14.68 21 -14 21 C-14 20.01 -14 19.02 -14 18 C-13.34 18 -12.68 18 -12 18 C-11.63 16.96 -11.63 16.96 -11.25 15.89 C-9.81 12.57 -8.01 9.75 -6 6.75 C-5.3 5.69 -4.6 4.64 -3.88 3.55 C-2 1 -2 1 0 0 Z " fill="#FEFEFE" transform="translate(951,781)"/>
<path d="M0 0 C1.12 -0.01 1.12 -0.01 2.26 -0.01 C7.56 0 7.56 0 8.69 1.12 C8.79 3.61 8.82 6.08 8.82 8.57 C8.82 9.73 8.82 9.73 8.82 10.93 C8.83 13.51 8.82 16.1 8.82 18.69 C8.82 20.48 8.82 22.27 8.82 24.06 C8.82 27.81 8.82 31.57 8.82 35.33 C8.81 40.15 8.82 44.98 8.82 49.8 C8.83 53.5 8.82 57.2 8.82 60.89 C8.82 62.67 8.82 64.45 8.82 66.23 C8.83 68.72 8.82 71.2 8.82 73.68 C8.82 74.43 8.82 75.17 8.82 75.93 C8.8 81.01 8.8 81.01 7.69 82.12 C5.58 82.37 3.47 82.55 1.36 82.7 C0.02 82.81 -1.32 82.92 -2.66 83.03 C-3.37 83.08 -4.08 83.14 -4.81 83.2 C-24.62 84.81 -44.85 87.65 -63.05 96.1 C-65.34 97.14 -67.65 98.04 -70 98.94 C-79.28 102.62 -88.2 107.08 -96.38 112.8 C-98.31 114.12 -98.31 114.12 -101.62 115.94 C-106.34 118.53 -110.5 122 -114.74 125.3 C-117.31 127.12 -117.31 127.12 -119.31 127.12 C-119.31 127.78 -119.31 128.44 -119.31 129.12 C-120.96 130.75 -120.96 130.75 -123.12 132.56 C-126.14 135.1 -126.14 135.1 -128.95 137.85 C-130.31 139.12 -130.31 139.12 -132.31 139.12 C-132.31 139.78 -132.31 140.44 -132.31 141.12 C-132.97 141.12 -133.63 141.12 -134.31 141.12 C-134.57 141.71 -134.83 142.3 -135.09 142.9 C-136.42 145.32 -137.88 146.86 -139.88 148.75 C-142.45 151.17 -142.45 151.17 -144.31 154.12 C-144.97 154.12 -145.63 154.12 -146.31 154.12 C-146.54 154.82 -146.77 155.51 -147.01 156.23 C-148.59 159.74 -150.78 162.53 -153.19 165.5 C-156.71 169.87 -159.61 174.21 -162.31 179.12 C-163.29 180.73 -164.27 182.34 -165.25 183.94 C-171.07 193.68 -175.06 203.55 -178.68 214.26 C-179.18 215.73 -179.7 217.19 -180.22 218.66 C-182.57 225.3 -184.15 232.18 -185.8 239.03 C-186.28 240.99 -186.8 242.94 -187.32 244.89 C-188.32 248.87 -188.78 252.78 -189.13 256.87 C-189.19 257.57 -189.25 258.26 -189.31 258.98 C-189.51 261.17 -189.69 263.37 -189.88 265.56 C-190.06 267.78 -190.25 270 -190.45 272.22 C-190.62 274.21 -190.79 276.21 -190.96 278.2 C-191.31 281.12 -191.31 281.12 -192.31 282.12 C-194.8 282.23 -197.26 282.26 -199.75 282.25 C-200.53 282.26 -201.31 282.26 -202.11 282.26 C-204.7 282.26 -207.29 282.26 -209.88 282.26 C-211.66 282.26 -213.45 282.26 -215.24 282.26 C-219 282.26 -222.76 282.26 -226.51 282.26 C-231.34 282.25 -236.16 282.25 -240.99 282.26 C-244.69 282.26 -248.38 282.26 -252.08 282.26 C-253.86 282.26 -255.64 282.26 -257.42 282.26 C-259.9 282.26 -262.39 282.26 -264.87 282.25 C-265.99 282.26 -265.99 282.26 -267.12 282.26 C-272.2 282.24 -272.2 282.24 -273.31 281.12 C-273.42 278.55 -273.45 276.01 -273.44 273.44 C-273.43 272.68 -273.43 271.92 -273.43 271.13 C-273.28 253.03 -273.28 253.03 -271.31 247.12 C-271.16 245.57 -271.04 244 -270.94 242.44 C-269.85 229.68 -266.74 217.42 -263.31 205.12 C-263.05 204.11 -262.8 203.1 -262.53 202.06 C-261.22 196.93 -259.6 192.27 -257.33 187.49 C-256.34 185.2 -255.67 182.98 -255.03 180.57 C-253.27 174.57 -250.64 169.1 -247.88 163.5 C-247.4 162.52 -246.92 161.53 -246.43 160.52 C-245.07 157.71 -243.69 154.92 -242.31 152.12 C-241.96 151.4 -241.61 150.67 -241.25 149.92 C-238.91 145.1 -236.21 140.62 -233.31 136.12 C-232.44 134.74 -231.57 133.36 -230.7 131.98 C-225.62 123.99 -220.38 116.4 -214.31 109.12 C-213.16 107.63 -212.02 106.13 -210.88 104.62 C-207.52 100.27 -203.86 96.23 -200.13 92.19 C-198.27 90.26 -198.27 90.26 -197.31 88.12 C-196.65 88.12 -195.99 88.12 -195.31 88.12 C-195.31 87.47 -195.31 86.81 -195.31 86.12 C-194.65 86.12 -193.99 86.12 -193.31 86.12 C-192.82 84.64 -192.82 84.64 -192.31 83.12 C-191.65 83.12 -190.99 83.12 -190.31 83.12 C-189.82 81.64 -189.82 81.64 -189.31 80.12 C-188.65 80.12 -187.99 80.12 -187.31 80.12 C-187.31 79.47 -187.31 78.81 -187.31 78.12 C-186.65 78.12 -185.99 78.12 -185.31 78.12 C-185.31 77.47 -185.31 76.81 -185.31 76.12 C-183.7 74.67 -182.02 73.28 -180.31 71.94 C-176.85 69.17 -173.43 66.39 -170.12 63.44 C-155.18 50.27 -137.49 39.09 -119.69 30.25 C-118.99 29.91 -118.3 29.56 -117.59 29.21 C-99.48 20.26 -99.48 20.26 -90.61 17.83 C-88.37 17.14 -86.41 16.28 -84.31 15.25 C-77.02 11.87 -69.06 10.15 -61.31 8.12 C-60.19 7.82 -59.06 7.52 -57.9 7.21 C-48.23 4.69 -38.56 3.09 -28.59 2.37 C-26.15 2.19 -26.15 2.19 -23.31 1.12 C-15.57 0.24 -7.79 0.03 0 0 Z " fill="#FEFEFE" transform="translate(472.3125,198.875)"/>
</svg>
