<svg version="1.0" xmlns="http://www.w3.org/2000/svg"
 width="50.000000pt" height="50.000000pt" viewBox="0 0 50.000000 50.000000"
 preserveAspectRatio="xMidYMid meet">

<g transform="translate(0.000000,50.000000) scale(0.100000,-0.100000)"
fill="#fff" stroke="none">
<path d="M180 475 c-25 -14 -69 -32 -99 -41 l-54 -16 7 -65 c14 -132 80 -257
173 -323 l43 -31 28 20 c47 33 109 106 136 160 28 55 56 157 56 208 0 29 -4
33 -42 44 -23 6 -68 24 -100 40 -69 35 -89 35 -148 4z m119 -119 c47 -25 63
-83 37 -135 -35 -66 -137 -66 -172 0 -47 91 44 182 135 135z"/>
<path d="M216 323 c-6 -20 -4 -35 8 -72 6 -18 4 -28 -9 -37 -16 -12 -15 -14 9
-20 14 -3 38 -3 52 0 25 7 25 8 9 20 -13 9 -16 19 -11 32 15 37 17 66 5 80
-16 20 -57 18 -63 -3z"/>
</g>
</svg>
